<svg width="194" height="45" viewBox="0 0 194 45" fill="none" xmlns="http://www.w3.org/2000/svg">
<path d="M54.03 34.17C51.922 34.1927 50.2787 33.7507 49.1 32.844C47.944 31.9373 47.1393 30.5433 46.686 28.662C46.2327 26.758 46.006 24.344 46.006 21.42C46.006 18.5867 46.244 16.2407 46.72 14.382C47.2187 12.5007 48.08 11.0953 49.304 10.166C50.528 9.23667 52.2507 8.772 54.472 8.772C55.7867 8.772 57.158 8.85133 58.586 9.01C60.0367 9.16867 61.3513 9.384 62.53 9.656V11.662C62.0767 11.6167 61.442 11.56 60.626 11.492C59.81 11.4013 58.9033 11.3333 57.906 11.288C56.9087 11.22 55.9 11.186 54.88 11.186C53.248 11.186 51.9787 11.5373 51.072 12.24C50.188 12.92 49.5647 14.008 49.202 15.504C48.862 17 48.692 18.9833 48.692 21.454C48.692 24.106 48.862 26.18 49.202 27.676C49.5647 29.1493 50.1767 30.192 51.038 30.804C51.922 31.3933 53.1687 31.688 54.778 31.688C55.866 31.688 56.9653 31.552 58.076 31.28C59.2093 31.008 60.1727 30.7133 60.966 30.396V23.018H54.914V21.012C55.5713 20.8987 56.3987 20.8193 57.396 20.774C58.416 20.706 59.4587 20.672 60.524 20.672C61.748 20.672 62.7567 20.7173 63.55 20.808V34H61.578L61.17 32.232C60.354 32.6627 59.3113 33.0933 58.042 33.524C56.7953 33.932 55.458 34.1473 54.03 34.17ZM72.3329 34.204C70.9956 34.204 69.8962 33.8073 69.0349 33.014C68.1736 32.2207 67.7429 31.0987 67.7429 29.648V28.356C67.7429 26.928 68.2076 25.772 69.1369 24.888C70.0889 24.004 71.5169 23.562 73.4209 23.562H79.5749V21.318C79.5749 20.57 79.4502 19.9353 79.2009 19.414C78.9516 18.87 78.4869 18.4507 77.8069 18.156C77.1269 17.8613 76.1522 17.714 74.8829 17.714H69.2389V16.116C70.0322 15.98 70.9502 15.8553 71.9929 15.742C73.0582 15.6287 74.3049 15.572 75.7329 15.572C77.9542 15.5493 79.5976 15.98 80.6629 16.864C81.7282 17.748 82.2609 19.1873 82.2609 21.182V34H80.1869L79.6769 31.926C79.6089 31.994 79.3369 32.1527 78.8609 32.402C78.3849 32.6287 77.7842 32.8893 77.0589 33.184C76.3562 33.456 75.5856 33.694 74.7469 33.898C73.9309 34.102 73.1262 34.204 72.3329 34.204ZM73.4549 32.198C73.9536 32.198 74.5429 32.13 75.2229 31.994C75.9256 31.8353 76.5942 31.654 77.2289 31.45C77.8862 31.246 78.4302 31.0647 78.8609 30.906C79.3142 30.7247 79.5522 30.634 79.5749 30.634V24.922L74.0329 25.16C72.7409 25.2053 71.8116 25.534 71.2449 26.146C70.7009 26.7353 70.4289 27.4833 70.4289 28.39V29.206C70.4289 29.954 70.5762 30.5433 70.8709 30.974C71.1882 31.4047 71.5736 31.722 72.0269 31.926C72.5029 32.1073 72.9789 32.198 73.4549 32.198ZM87.3242 34V15.844H89.4322L90.0102 17.85C90.9169 17.238 91.9256 16.7053 93.0362 16.252C94.1696 15.776 95.4276 15.538 96.8102 15.538C97.9436 15.538 98.9069 15.7987 99.7002 16.32C100.494 16.8187 101.106 17.4533 101.536 18.224C102.103 17.816 102.783 17.408 103.576 17C104.392 16.592 105.254 16.252 106.16 15.98C107.09 15.6853 107.985 15.538 108.846 15.538C110.161 15.538 111.238 15.8213 112.076 16.388C112.915 16.932 113.527 17.68 113.912 18.632C114.32 19.5613 114.524 20.604 114.524 21.76V34H111.838V21.964C111.838 20.808 111.498 19.856 110.818 19.108C110.138 18.36 109.198 17.986 107.996 17.986C106.976 17.986 105.934 18.1787 104.868 18.564C103.803 18.9493 102.817 19.414 101.91 19.958C102.137 20.6607 102.25 21.3407 102.25 21.998V34H99.5642V21.964C99.5642 20.808 99.2242 19.856 98.5442 19.108C97.8869 18.36 96.9689 17.986 95.7902 17.986C94.6116 17.986 93.5916 18.1447 92.7302 18.462C91.8689 18.7793 90.9622 19.21 90.0102 19.754V34H87.3242ZM126.5 34.204C124.596 34.204 123.089 33.9207 121.978 33.354C120.89 32.7873 120.108 31.824 119.632 30.464C119.156 29.104 118.918 27.2453 118.918 24.888C118.918 22.4853 119.156 20.6153 119.632 19.278C120.131 17.918 120.936 16.966 122.046 16.422C123.157 15.878 124.653 15.606 126.534 15.606C128.121 15.606 129.424 15.7873 130.444 16.15C131.464 16.5127 132.212 17.136 132.688 18.02C133.187 18.8813 133.436 20.0827 133.436 21.624C133.436 23.2333 132.972 24.3667 132.042 25.024C131.113 25.6813 129.855 26.01 128.268 26.01H121.604C121.604 27.4833 121.752 28.6733 122.046 29.58C122.364 30.464 122.919 31.11 123.712 31.518C124.506 31.9033 125.65 32.096 127.146 32.096H132.994V33.728C131.952 33.864 130.932 33.9773 129.934 34.068C128.96 34.1587 127.815 34.204 126.5 34.204ZM121.57 24.242H128.03C129.05 24.242 129.798 24.0607 130.274 23.698C130.773 23.3127 131.022 22.6327 131.022 21.658C131.022 20.1167 130.682 19.0627 130.002 18.496C129.322 17.9293 128.166 17.646 126.534 17.646C125.242 17.646 124.234 17.8387 123.508 18.224C122.806 18.5867 122.307 19.2553 122.012 20.23C121.718 21.182 121.57 22.5193 121.57 24.242ZM137.959 42.058V15.844H140.135L140.645 17.714C141.053 17.4193 141.574 17.1133 142.209 16.796C142.866 16.456 143.569 16.1727 144.317 15.946C145.088 15.7193 145.847 15.606 146.595 15.606C148.159 15.606 149.417 16.048 150.369 16.932C151.321 17.7933 152.012 18.9267 152.443 20.332C152.874 21.7373 153.089 23.256 153.089 24.888C153.089 27.948 152.568 30.2713 151.525 31.858C150.482 33.4447 148.839 34.238 146.595 34.238C145.598 34.238 144.578 34.0793 143.535 33.762C142.492 33.4447 141.529 33.0253 140.645 32.504V42.058H137.959ZM145.847 31.96C146.708 31.96 147.479 31.7447 148.159 31.314C148.839 30.8833 149.383 30.158 149.791 29.138C150.199 28.0953 150.403 26.6787 150.403 24.888C150.403 23.188 150.188 21.828 149.757 20.808C149.326 19.7653 148.76 19.0173 148.057 18.564C147.377 18.088 146.64 17.85 145.847 17.85C144.804 17.85 143.841 18.02 142.957 18.36C142.096 18.6773 141.325 19.0173 140.645 19.38V30.498C141.438 30.9287 142.277 31.28 143.161 31.552C144.068 31.824 144.963 31.96 145.847 31.96ZM161.151 34.204C159.814 34.204 158.715 33.8073 157.853 33.014C156.992 32.2207 156.561 31.0987 156.561 29.648V28.356C156.561 26.928 157.026 25.772 157.955 24.888C158.907 24.004 160.335 23.562 162.239 23.562H168.393V21.318C168.393 20.57 168.269 19.9353 168.019 19.414C167.77 18.87 167.305 18.4507 166.625 18.156C165.945 17.8613 164.971 17.714 163.701 17.714H158.057V16.116C158.851 15.98 159.769 15.8553 160.811 15.742C161.877 15.6287 163.123 15.572 164.551 15.572C166.773 15.5493 168.416 15.98 169.481 16.864C170.547 17.748 171.079 19.1873 171.079 21.182V34H169.005L168.495 31.926C168.427 31.994 168.155 32.1527 167.679 32.402C167.203 32.6287 166.603 32.8893 165.877 33.184C165.175 33.456 164.404 33.694 163.565 33.898C162.749 34.102 161.945 34.204 161.151 34.204ZM162.273 32.198C162.772 32.198 163.361 32.13 164.041 31.994C164.744 31.8353 165.413 31.654 166.047 31.45C166.705 31.246 167.249 31.0647 167.679 30.906C168.133 30.7247 168.371 30.634 168.393 30.634V24.922L162.851 25.16C161.559 25.2053 160.63 25.534 160.063 26.146C159.519 26.7353 159.247 27.4833 159.247 28.39V29.206C159.247 29.954 159.395 30.5433 159.689 30.974C160.007 31.4047 160.392 31.722 160.845 31.926C161.321 32.1073 161.797 32.198 162.273 32.198ZM182.025 34.204C179.781 34.204 178.126 33.4673 177.061 31.994C176.018 30.5207 175.497 28.2087 175.497 25.058C175.497 22.814 175.723 21.0007 176.177 19.618C176.63 18.2353 177.355 17.2267 178.353 16.592C179.35 15.9347 180.687 15.606 182.365 15.606C183.385 15.606 184.382 15.7193 185.357 15.946C186.331 16.1727 187.193 16.422 187.941 16.694V8.058H190.627V34H188.451L187.941 32.164C187.601 32.4587 187.091 32.7647 186.411 33.082C185.753 33.3993 185.028 33.6713 184.235 33.898C183.464 34.102 182.727 34.204 182.025 34.204ZM182.807 31.994C183.849 31.994 184.79 31.8353 185.629 31.518C186.49 31.178 187.261 30.8267 187.941 30.464V18.598C187.125 18.3713 186.343 18.1673 185.595 17.986C184.869 17.8047 184.031 17.714 183.079 17.714C181.923 17.714 180.982 17.9293 180.257 18.36C179.531 18.7907 178.999 19.5387 178.659 20.604C178.341 21.6467 178.183 23.0973 178.183 24.956C178.183 27.4947 178.534 29.308 179.237 30.396C179.962 31.4613 181.152 31.994 182.807 31.994Z" fill="white"/>
<g clip-path="url(#clip0_152_2517)">
<path d="M13.877 8.36472L8.36476 13.877C7.8532 14.3885 7.8532 15.2189 8.36476 15.7305L13.8807 21.2464C14.13 21.4957 14.4697 21.6342 14.8223 21.6301L20.2734 21.5689C20.6297 21.5647 20.9517 21.4188 21.1853 21.1852C21.4188 20.9517 21.5652 20.6292 21.569 20.2733L21.6301 14.8222C21.6343 14.4696 21.4957 14.13 21.2465 13.8807L15.7305 8.36472C15.2189 7.85316 14.3886 7.85316 13.877 8.36472ZM19.0033 15.3445L18.9625 18.9625L15.3445 19.0032L11.145 14.8037L14.8038 11.1449L19.0033 15.3445Z" fill="#FF4655"/>
<path d="M29.6617 22.8539L24.2102 22.9146C23.4975 22.922 22.922 23.4975 22.9146 24.2102L22.8539 29.6617C22.8497 30.0143 22.9883 30.354 23.2375 30.6033L28.753 36.1188C29.2646 36.6303 30.095 36.6303 30.6065 36.1188L36.1188 30.6065C36.6303 30.095 36.6303 29.2646 36.1188 28.753L30.6033 23.2375C30.354 22.9883 30.0143 22.8497 29.6617 22.8539ZM29.6798 33.3386L25.4807 29.1395L25.521 25.521L29.1395 25.4807L33.3386 29.6798L29.6798 33.3386Z" fill="#FF4655"/>
<path d="M20.2729 22.9141L14.8213 22.8534C14.4687 22.8492 14.1291 22.9878 13.8798 23.2371L8.36429 28.7526C7.85273 29.2641 7.85273 30.0945 8.36429 30.6061L13.8765 36.1183C14.3886 36.6303 15.2185 36.6299 15.73 36.1183L21.2455 30.6028C21.4948 30.3535 21.6333 30.0139 21.6292 29.6612L21.5689 24.2102C21.5611 23.498 20.9851 22.922 20.2729 22.9141ZM19.0023 29.139L14.8033 33.3381L11.145 29.6798L15.344 25.4807L18.9625 25.521L19.0023 29.139Z" fill="#FF4655"/>
<path d="M28.753 8.36472L23.2375 13.8802C22.9883 14.1295 22.8497 14.4692 22.8539 14.8218L22.9146 20.2733C22.9225 20.9855 23.4984 21.5615 24.2106 21.5694L29.6617 21.6296C30.0143 21.6338 30.354 21.4952 30.6033 21.2459L36.1188 15.7305C36.6303 15.2189 36.6303 14.3885 36.1188 13.877L30.6065 8.36472C30.0945 7.8527 29.2646 7.85316 28.753 8.36472ZM33.3381 14.8032L29.139 19.0023L25.521 18.9625L25.4807 15.344L29.6798 11.1449L33.3381 14.8032Z" fill="#FF4655" stroke="#FF4655"/>
</g>
<defs>
<clipPath id="clip0_152_2517">
<rect width="31.4546" height="31.4546" fill="white" transform="translate(0 22.2418) rotate(-45)"/>
</clipPath>
</defs>
</svg>
